<?xml version="1.0" encoding="utf-8"?>
<!-- Generator: Adobe Illustrator 22.1.0, SVG Export Plug-In . SVG Version: 6.00 Build 0)  -->
<svg version="1.1" id="Layer_1" xmlns="http://www.w3.org/2000/svg" xmlns:xlink="http://www.w3.org/1999/xlink" x="0px" y="0px"
	 viewBox="0 0 84.7 17.1" style="enable-background:new 0 0 84.7 17.1;" xml:space="preserve">
<style type="text/css">
	.st0{fill:#F26F63;}
</style>
<path class="st0" d="M8.3,1C8.5,0.4,8.8,0.4,9,1l1.4,4.3C10.6,6,11.3,6.5,12,6.5h4.6c0.6,0,0.7,0.3,0.2,0.7l-3.7,2.7
	c-0.5,0.4-0.8,1.2-0.6,1.8l1.4,4.3c0.2,0.6-0.1,0.8-0.6,0.4l-3.7-2.7c-0.5-0.4-1.4-0.4-1.9,0L4,16.4c-0.5,0.4-0.8,0.2-0.6-0.4
	l1.4-4.3c0.2-0.6-0.1-1.4-0.6-1.8L0.6,7.2C0.1,6.8,0.2,6.5,0.8,6.5h4.6C6,6.5,6.7,6,6.9,5.4L8.3,1z"/>
<path class="st0" d="M25.2,1c0.2-0.6,0.5-0.6,0.7,0l1.4,4.3c0.2,0.6,0.9,1.1,1.5,1.1h4.6c0.6,0,0.7,0.3,0.2,0.7l-3.7,2.7
	c-0.5,0.4-0.8,1.2-0.6,1.8l1.4,4.3c0.2,0.6-0.1,0.8-0.6,0.4l-3.7-2.7c-0.5-0.4-1.4-0.4-1.9,0l-3.7,2.7c-0.5,0.4-0.8,0.2-0.6-0.4
	l1.4-4.3c0.2-0.6-0.1-1.4-0.6-1.8l-3.7-2.7c-0.5-0.4-0.4-0.7,0.2-0.7h4.6c0.6,0,1.3-0.5,1.5-1.1L25.2,1z"/>
<path class="st0" d="M42,1c0.2-0.6,0.5-0.6,0.7,0l1.4,4.3C44.4,6,45,6.5,45.7,6.5h4.6c0.6,0,0.7,0.3,0.2,0.7l-3.7,2.7
	c-0.5,0.4-0.8,1.2-0.6,1.8l1.4,4.3c0.2,0.6-0.1,0.8-0.6,0.4l-3.7-2.7c-0.5-0.4-1.4-0.4-1.9,0l-3.7,2.7c-0.5,0.4-0.8,0.2-0.6-0.4
	l1.4-4.3c0.2-0.6-0.1-1.4-0.6-1.8l-3.7-2.7c-0.5-0.4-0.4-0.7,0.2-0.7h4.6c0.6,0,1.3-0.5,1.5-1.1L42,1z"/>
<path class="st0" d="M59,1c0.2-0.6,0.5-0.6,0.7,0l1.4,4.3C61.3,6,62,6.5,62.6,6.5h4.6c0.6,0,0.7,0.3,0.2,0.7l-3.7,2.7
	c-0.5,0.4-0.8,1.2-0.6,1.8l1.4,4.3c0.2,0.6-0.1,0.8-0.6,0.4l-3.7-2.7c-0.5-0.4-1.4-0.4-1.9,0l-3.7,2.7c-0.5,0.4-0.8,0.2-0.6-0.4
	l1.4-4.3c0.2-0.6-0.1-1.4-0.6-1.8l-3.7-2.7c-0.5-0.4-0.4-0.7,0.2-0.7H56c0.6,0,1.3-0.5,1.5-1.1L59,1z"/>
<path class="st0" d="M75.9,1c0.2-0.6,0.5-0.6,0.7,0L78,5.4c0.2,0.6,0.9,1.1,1.5,1.1h4.6c0.6,0,0.7,0.3,0.2,0.7l-3.7,2.7
	c-0.5,0.4-0.8,1.2-0.6,1.8l1.4,4.3c0.2,0.6-0.1,0.8-0.6,0.4l-3.7-2.7c-0.5-0.4-1.4-0.4-1.9,0l-3.7,2.7c-0.5,0.4-0.8,0.2-0.6-0.4
	l1.4-4.3c0.2-0.6-0.1-1.4-0.6-1.8l-3.7-2.7c-0.5-0.4-0.4-0.7,0.2-0.7H73c0.6,0,1.3-0.5,1.5-1.1L75.9,1z"/>
</svg>
